# xmcd
#
# Track frame offsets:
#	151
#	12858
#	29615
#	44266
#	63148
#	77200
#	92082
#	106904
#	122966
#	141525
#	156585
#	174204
#	184988
#
# Disc length: 2665 seconds
#
# Revision: 0
# Processed by: cddbd v1.5.2PL0 Copyright (c) Steve Scherf et al.
# Submitted via: EasyCDDAExtractor 2010.6.0.0
#
DISCID=b10a670d
DTITLE=Sandy Bradley and the Small Wonder String Band - Untitled
DYEAR=1982
DGENRE=Country
TTITLE0=Never Take A Chance On Love (Billy Iberti)
TTITLE1=I'm Goin' Back to Where I Come From (Carson Robinson)
TTITLE2=Grasshopper Sittin' on a Sweet Potato Vine/ Bouchard's Hornpipe
TTITLE3=Foolish Questions
TTITLE4=You'll be Rewarded Over There
TTITLE5=Drunk Man Blues
TTITLE6=Ya Gotta See Your Mama Every Night
TTITLE7=Sorghum Syrup
TTITLE8=My Boarding House
TTITLE9=unknown title
TTITLE10=Little Brown Hand
TTITLE11=Give Me Just A Little More Time
TTITLE12=Chilly Winds
EXTD=
EXTT0=
EXTT1=
EXTT2=
EXTT3=
EXTT4=
EXTT5=
EXTT6=
EXTT7=
EXTT8=
EXTT9=
EXTT10=
EXTT11=
EXTT12=
PLAYORDER=
